<?xml version="1.0" encoding="UTF-8" standalone="no"?>

<svg
   width="26.153452mm"
   height="3.0726547mm"
   viewBox="0 0 26.153452 3.0726547"
   version="1.1"
   id="svg5"
   xmlns="http://www.w3.org/2000/svg"
   xmlns:svg="http://www.w3.org/2000/svg">
  <defs
     id="defs2" />
  <g
     id="layer1"
     transform="translate(-22.586211,-113.79641)">
    <g
       id="text113"
       style="font-style:italic;font-stretch:semi-condensed;font-size:3.175px;font-family:'DejaVu Serif';fill:#ffffff;stroke-width:0.264583">
      <path
         d="m 23.528791,115.95132 q -0.187585,0.30231 -0.485241,0.30231 -0.246497,0 -0.37052,-0.18448 -0.08682,-0.13023 -0.08682,-0.31626 0,-0.0791 0.0155,-0.16744 0.09612,-0.54725 0.437183,-0.8294 0.293005,-0.2403 0.644922,-0.2403 0.237195,0 0.31936,0.045 l -0.260449,1.48363 h 0.221692 l -0.02946,0.16433 h -0.451135 z m -0.671276,-0.20774 q 0,0.33177 0.288354,0.33177 0.175183,0 0.294556,-0.15503 0.120923,-0.15658 0.172082,-0.45424 l 0.131775,-0.74724 v 0 q 0,-0.045 -0.113171,-0.045 -0.266651,0 -0.47594,0.23255 -0.206189,0.23409 -0.280603,0.65887 -0.01705,0.0992 -0.01705,0.17828 z"
         id="path365" />
      <path
         d="m 25.699202,114.55761 -0.07286,0.41238 H 25.47906 q 0.0031,-0.031 0.0031,-0.0574 0,-0.0806 -0.03256,-0.12558 -0.04341,-0.0605 -0.148828,-0.0605 -0.189136,0 -0.31626,0.14573 -0.127124,0.14573 -0.173632,0.41858 l -0.161231,0.91777 h -0.257348 l 0.260449,-1.48518 h -0.244947 l 0.02791,-0.16278 h 0.502295 l -0.05116,0.29301 q 0.10542,-0.17209 0.238745,-0.25425 0.133325,-0.0837 0.303858,-0.0837 0.06201,0 0.128674,0.0109 0.06821,0.0109 0.141077,0.031 z"
         id="path367" />
      <path
         d="m 25.941047,114.72659 h -0.226342 l 0.02946,-0.16588 h 0.226343 l 0.08837,-0.5116 h 0.258899 l -0.08992,0.5116 h 0.482141 l -0.02791,0.16588 h -0.483691 l -0.182935,1.04645 q -0.0217,0.12247 -0.0217,0.19379 0,0.0496 0.01085,0.0744 0.02636,0.0589 0.124024,0.0589 0.100769,0 0.15813,-0.0651 0.05736,-0.0667 0.08682,-0.21394 h 0.193787 q -0.05116,0.22479 -0.168982,0.32866 -0.116272,0.10387 -0.319361,0.10387 -0.221691,0 -0.294555,-0.11007 -0.04496,-0.0667 -0.04496,-0.19069 0,-0.0791 0.0186,-0.17983 z"
         id="path369" />
      <path
         d="m 28.430818,115.8242 q -0.10387,0.12712 -0.218591,0.18913 -0.113172,0.062 -0.241846,0.062 -0.244946,0 -0.362769,-0.19379 -0.117822,-0.19379 -0.06356,-0.5054 0.05426,-0.3116 0.240296,-0.50384 0.186035,-0.19379 0.429431,-0.19379 0.130224,0 0.221692,0.062 0.09147,0.062 0.151928,0.18914 l 0.03876,-0.22014 H 28.8432 l -0.20929,1.19682 q 0.248047,-0.0574 0.412378,-0.25114 0.165882,-0.19379 0.215491,-0.48524 0.03101,-0.17209 0.0093,-0.32557 -0.02015,-0.15348 -0.08992,-0.2837 -0.111621,-0.20619 -0.305408,-0.31471 -0.193787,-0.11007 -0.443384,-0.11007 -0.125574,0 -0.254248,0.0295 -0.127124,0.0294 -0.258899,0.0899 -0.306958,0.14418 -0.514697,0.43719 -0.206189,0.29145 -0.274402,0.67437 -0.04496,0.2589 -0.01395,0.47749 0.03256,0.21704 0.137977,0.37672 0.119372,0.18449 0.310058,0.28061 0.192236,0.0977 0.434082,0.0977 0.179834,0 0.345715,-0.0589 0.167432,-0.0589 0.322461,-0.17673 l 0.05426,0.10852 q -0.176734,0.14418 -0.379822,0.21549 -0.203089,0.0729 -0.430982,0.0729 -0.255798,0 -0.469738,-0.10387 -0.213941,-0.10232 -0.355017,-0.29301 -0.145728,-0.19689 -0.195337,-0.44958 -0.04806,-0.25425 0.0047,-0.54726 0.04961,-0.28525 0.186035,-0.53795 0.137976,-0.2527 0.351916,-0.44958 0.21084,-0.19534 0.469739,-0.30076 0.258899,-0.10542 0.5302,-0.10542 0.299207,0 0.522449,0.12867 0.223242,0.12868 0.347265,0.37052 0.07906,0.15193 0.10232,0.33022 0.02325,0.17828 -0.0093,0.37052 -0.07286,0.41547 -0.342615,0.65732 -0.269751,0.2403 -0.663525,0.24495 z m 0.06356,-0.36742 0.02945,-0.16278 q 0.03411,-0.19379 -0.04496,-0.31316 -0.07906,-0.12092 -0.238745,-0.12092 -0.168982,0 -0.286804,0.13642 -0.117823,0.13488 -0.161231,0.37982 -0.04341,0.2465 0.02791,0.38293 0.07131,0.13487 0.241846,0.13487 0.15813,0 0.279053,-0.12092 0.120923,-0.12247 0.153479,-0.31626 z"
         id="path371" />
      <path
         d="m 30.216755,115.3033 -0.02791,0.16278 q -0.0217,0.12247 -0.0217,0.22014 0,0.14108 0.04496,0.2341 0.07441,0.15503 0.269751,0.15503 0.196887,0 0.328662,-0.17519 0.131775,-0.17518 0.192237,-0.51624 0.02635,-0.15658 0.02635,-0.27906 0,-0.14262 -0.03721,-0.23719 -0.07131,-0.17363 -0.268201,-0.17363 -0.195337,0 -0.325562,0.15657 -0.130224,0.15658 -0.181384,0.45269 z m -0.156579,-0.57671 h -0.246497 l 0.02945,-0.16588 h 0.503846 l -0.04496,0.25735 q 0.10232,-0.15503 0.230994,-0.22789 0.130224,-0.0744 0.300757,-0.0744 0.274402,0 0.404626,0.2403 0.08682,0.15813 0.08682,0.37982 0,0.11627 -0.02325,0.24805 -0.06821,0.38757 -0.283703,0.62941 -0.213941,0.2403 -0.488343,0.2403 -0.170532,0 -0.274402,-0.0729 -0.103869,-0.0744 -0.151928,-0.22945 l -0.161231,0.91778 h -0.255798 z"
         id="path373" />
      <path
         d="m 32.897212,114.55761 -0.07286,0.41238 h -0.147277 q 0.0031,-0.031 0.0031,-0.0574 0,-0.0806 -0.03256,-0.12558 -0.04341,-0.0605 -0.148828,-0.0605 -0.189136,0 -0.31626,0.14573 -0.127124,0.14573 -0.173633,0.41858 l -0.16123,0.91777 h -0.257349 l 0.260449,-1.48518 h -0.244946 l 0.02791,-0.16278 h 0.502295 l -0.05116,0.29301 q 0.10542,-0.17209 0.238745,-0.25425 0.133325,-0.0837 0.303857,-0.0837 0.06201,0 0.128675,0.0109 0.06821,0.0109 0.141076,0.031 z"
         id="path375" />
      <path
         d="m 33.794831,115.95132 q -0.187585,0.30231 -0.485241,0.30231 -0.246497,0 -0.37052,-0.18448 -0.08682,-0.13023 -0.08682,-0.31626 0,-0.0791 0.0155,-0.16744 0.09612,-0.54725 0.437183,-0.8294 0.293005,-0.2403 0.644922,-0.2403 0.237194,0 0.31936,0.045 l -0.260449,1.48363 h 0.221692 l -0.02946,0.16433 h -0.451135 z m -0.671277,-0.20774 q 0,0.33177 0.288355,0.33177 0.175183,0 0.294556,-0.15503 0.120922,-0.15658 0.172082,-0.45424 l 0.131775,-0.74724 v 0 q 0,-0.045 -0.113171,-0.045 -0.266651,0 -0.47594,0.23255 -0.206189,0.23409 -0.280603,0.65887 -0.01705,0.0992 -0.01705,0.17828 z"
         id="path377" />
      <path
         d="m 34.557576,115.73273 h 0.147277 q -0.0046,0.045 -0.0046,0.0853 0,0.28215 0.344165,0.28215 0.345715,0 0.396875,-0.28215 0.0031,-0.0279 0.0031,-0.0775 0,-0.0481 -0.04806,-0.10542 -0.04651,-0.0589 -0.246496,-0.13487 l -0.173633,-0.0698 q -0.178284,-0.0682 -0.237195,-0.15502 -0.05736,-0.0884 -0.05736,-0.18914 0,-0.0403 0.0062,-0.0868 0.04186,-0.22634 0.21239,-0.35501 0.172083,-0.12868 0.42013,-0.12868 0.248047,0 0.506946,0.13333 l -0.06356,0.35966 h -0.147278 q 0.0062,-0.0357 0.0062,-0.0667 0,-0.11317 -0.07131,-0.19223 -0.06976,-0.0806 -0.234094,-0.0806 -0.327112,0 -0.37207,0.25425 -0.0062,0.0264 -0.0062,0.0729 0,0.0481 0.04496,0.10232 0.04651,0.0543 0.223242,0.11937 l 0.192237,0.0698 q 0.196887,0.0729 0.271301,0.18293 0.05116,0.0775 0.05116,0.15348 0,0.32556 -0.234095,0.49454 -0.184484,0.13488 -0.466638,0.13488 -0.280603,0 -0.5302,-0.13643 z"
         id="path379" />
      <path
         d="m 36.658223,116.10015 q 0.206189,0 0.342614,-0.18138 0.137976,-0.18139 0.199988,-0.53485 0.0279,-0.16123 0.0279,-0.28681 0,-0.14883 -0.04031,-0.2465 -0.07441,-0.18138 -0.280603,-0.18138 -0.206189,0 -0.344165,0.18138 -0.136426,0.17984 -0.198438,0.53331 -0.02791,0.16123 -0.02791,0.28525 0,0.15038 0.04031,0.2496 0.07441,0.18138 0.280603,0.18138 z m -0.02791,0.15348 q -0.322461,0 -0.47749,-0.23719 -0.10852,-0.16589 -0.10852,-0.40463 0,-0.10697 0.0217,-0.22789 0.06821,-0.39378 0.305407,-0.63097 0.238745,-0.2372 0.562757,-0.2372 0.325561,0 0.480591,0.2372 0.10697,0.16433 0.10697,0.40307 0,0.10697 -0.0217,0.2279 -0.06821,0.39377 -0.306958,0.63252 -0.237195,0.23719 -0.562757,0.23719 z"
         id="path381" />
      <path
         d="m 39.02552,114.56071 h 0.257348 l -0.260449,1.48363 h 0.243396 l -0.02946,0.16433 h -0.499194 l 0.05116,-0.29145 q -0.100769,0.16433 -0.229444,0.25114 -0.127124,0.0853 -0.275952,0.0853 -0.246496,0 -0.336413,-0.15658 -0.05426,-0.093 -0.05426,-0.2527 0,-0.10387 0.02325,-0.23564 l 0.155029,-0.88212 h -0.232544 l 0.02946,-0.16588 h 0.489892 l -0.167431,0.95963 q -0.02791,0.15968 -0.02791,0.2651 0,0.0946 0.0217,0.14728 0.04651,0.11162 0.217041,0.11162 0.178284,0 0.296106,-0.14573 0.119373,-0.14572 0.168982,-0.42323 z"
         id="path383" />
      <path
         d="m 39.682845,116.20867 0.260449,-1.48208 h -0.246497 l 0.02946,-0.16588 h 0.502295 l -0.05116,0.29301 q 0.100769,-0.16744 0.229443,-0.2527 0.128675,-0.0853 0.279053,-0.0853 0.244946,0 0.333313,0.15658 0.05426,0.0946 0.05426,0.2527 0,0.10387 -0.02325,0.23564 l -0.155029,0.88367 h 0.229443 l -0.02946,0.16433 h -0.486792 l 0.167432,-0.95808 q 0.0279,-0.15968 0.0279,-0.26665 0,-0.0946 -0.0217,-0.14883 -0.04806,-0.11162 -0.217041,-0.11162 -0.178283,0 -0.297656,0.14573 -0.117822,0.14418 -0.165881,0.42168 l -0.161231,0.91777 z"
         id="path385" />
      <path
         d="m 43.037677,113.79642 -0.421679,2.41225 h -0.257349 l 0.04496,-0.25735 q -0.10232,0.15503 -0.232544,0.22945 -0.128675,0.0729 -0.299207,0.0729 -0.274402,0 -0.406177,-0.2403 -0.08682,-0.15968 -0.08682,-0.38292 0,-0.11472 0.02325,-0.24649 0.06821,-0.38758 0.282154,-0.62787 0.21549,-0.2403 0.491442,-0.2403 0.170533,0 0.274402,0.0744 0.10387,0.0729 0.151929,0.22789 l 0.150378,-0.85731 H 42.50902 l 0.02946,-0.16433 z m -0.548803,1.66966 0.0279,-0.16278 q 0.0217,-0.12092 0.0217,-0.21859 0,-0.14108 -0.04496,-0.2341 -0.07441,-0.15657 -0.269751,-0.15657 -0.198438,0 -0.330213,0.17363 -0.131775,0.17363 -0.190686,0.51625 -0.0279,0.15658 -0.0279,0.2775 0,0.14418 0.03876,0.23874 0.06976,0.17519 0.268201,0.17519 0.195337,0 0.325561,-0.15503 0.130225,-0.15658 0.181385,-0.45424 z"
         id="path387" />
      <path
         d="m 43.446954,116.19472 q -0.04186,-0.0605 -0.0279,-0.14728 0.0155,-0.0868 0.07906,-0.14728 0.06356,-0.0605 0.144177,-0.0605 0.07596,0 0.119373,0.0605 0.04496,0.0605 0.02945,0.14728 -0.0155,0.0853 -0.08062,0.14573 -0.06356,0.0605 -0.141077,0.0605 -0.07906,0 -0.122473,-0.0589 z"
         id="path389" />
      <path
         d="m 44.257758,116.20867 0.260449,-1.48208 H 44.27171 l 0.02946,-0.16588 h 0.502295 l -0.05116,0.29301 q 0.100769,-0.16744 0.229443,-0.2527 0.128675,-0.0853 0.279053,-0.0853 0.244946,0 0.333313,0.15658 0.05426,0.0946 0.05426,0.2527 0,0.10387 -0.02325,0.23564 l -0.155029,0.88367 h 0.229443 l -0.02946,0.16433 h -0.486792 l 0.167432,-0.95808 q 0.0279,-0.15968 0.0279,-0.26665 0,-0.0946 -0.0217,-0.14883 -0.04806,-0.11162 -0.217041,-0.11162 -0.178283,0 -0.297656,0.14573 -0.117822,0.14418 -0.165881,0.42168 l -0.161231,0.91777 z"
         id="path391" />
      <path
         d="m 46.316547,115.57615 q -0.0062,0.0589 -0.0062,0.11162 0,0.14573 0.04806,0.24185 0.08217,0.17053 0.302307,0.17053 0.162781,0 0.241846,-0.0543 0.142627,-0.0977 0.175183,-0.22324 h 0.189136 q -0.05581,0.19689 -0.26355,0.33486 -0.145727,0.0961 -0.434082,0.0961 -0.286804,0 -0.441833,-0.23719 -0.108521,-0.16589 -0.108521,-0.40618 0,-0.10542 0.0217,-0.22479 0.06821,-0.39223 0.303858,-0.63097 0.235644,-0.23875 0.570507,-0.23875 0.545704,0 0.545704,0.42943 0,0.31471 -0.285254,0.46819 -0.293006,0.15658 -0.858863,0.16278 z m 0.716236,-0.34726 q 0.155029,-0.10232 0.155029,-0.29456 0,-0.2651 -0.31626,-0.2651 -0.186035,0 -0.316259,0.15813 -0.130225,0.15813 -0.20929,0.58446 0.448035,-0.0233 0.68678,-0.18293 z"
         id="path393" />
      <path
         d="m 47.97071,114.72659 h -0.226343 l 0.02946,-0.16588 h 0.226343 l 0.08837,-0.5116 h 0.258899 l -0.08992,0.5116 h 0.482141 l -0.0279,0.16588 h -0.483691 l -0.182935,1.04645 q -0.0217,0.12247 -0.0217,0.19379 0,0.0496 0.01085,0.0744 0.02635,0.0589 0.124023,0.0589 0.100769,0 0.15813,-0.0651 0.05736,-0.0667 0.08682,-0.21394 h 0.193786 q -0.05116,0.22479 -0.168982,0.32866 -0.116272,0.10387 -0.31936,0.10387 -0.221692,0 -0.294556,-0.11007 -0.04496,-0.0667 -0.04496,-0.19069 0,-0.0791 0.0186,-0.17983 z"
         id="path395" />
    </g>
  </g>
</svg>
